<mxfile host="65bd71144e" compressed="false">
    <diagram id="h7_yvdmtEVzJECT62FOS" name="arch">
        <mxGraphModel dx="471" dy="527" grid="1" gridSize="10" guides="1" tooltips="1" connect="1" arrows="1" fold="1" page="0" pageScale="1" pageWidth="850" pageHeight="1100" math="0" shadow="0">
            <root>
                <mxCell id="MCLd99j0MumWY56yEGRH-0"/>
                <mxCell id="MCLd99j0MumWY56yEGRH-1" parent="MCLd99j0MumWY56yEGRH-0"/>
                <mxCell id="mdzPaGVVpMRmBxDRZHBc-46" style="edgeStyle=none;shape=connector;rounded=1;orthogonalLoop=1;jettySize=auto;html=1;exitX=0.5;exitY=1;exitDx=0;exitDy=0;entryX=0.198;entryY=0.037;entryDx=0;entryDy=0;entryPerimeter=0;labelBackgroundColor=default;fontFamily=Helvetica;fontSize=11;fontColor=default;endArrow=classicThin;strokeColor=#990000;strokeWidth=2;elbow=vertical;endFill=1;startSize=3;endSize=3;" parent="MCLd99j0MumWY56yEGRH-1" source="GU_CEaot5JSk9fCdpZLy-0" target="GU_CEaot5JSk9fCdpZLy-2" edge="1">
                    <mxGeometry relative="1" as="geometry"/>
                </mxCell>
                <mxCell id="GU_CEaot5JSk9fCdpZLy-0" value="DNN Model" style="whiteSpace=wrap;align=center;verticalAlign=middle;fontStyle=1;strokeWidth=2;fillColor=#FFFFCC" parent="MCLd99j0MumWY56yEGRH-1" vertex="1">
                    <mxGeometry x="120" y="10" width="80" height="40" as="geometry"/>
                </mxCell>
                <mxCell id="mdzPaGVVpMRmBxDRZHBc-47" style="edgeStyle=none;shape=connector;rounded=1;orthogonalLoop=1;jettySize=auto;html=1;exitX=0.5;exitY=1;exitDx=0;exitDy=0;entryX=0.8;entryY=0.012;entryDx=0;entryDy=0;entryPerimeter=0;labelBackgroundColor=default;fontFamily=Helvetica;fontSize=11;fontColor=default;endArrow=classicThin;strokeColor=#990000;strokeWidth=2;elbow=vertical;endFill=1;startSize=3;endSize=3;" parent="MCLd99j0MumWY56yEGRH-1" source="GU_CEaot5JSk9fCdpZLy-1" target="GU_CEaot5JSk9fCdpZLy-2" edge="1">
                    <mxGeometry relative="1" as="geometry"/>
                </mxCell>
                <mxCell id="GU_CEaot5JSk9fCdpZLy-1" value="TeSA Spec" style="whiteSpace=wrap;align=center;verticalAlign=middle;fontStyle=1;strokeWidth=2;fillColor=#FFFFCC" parent="MCLd99j0MumWY56yEGRH-1" vertex="1">
                    <mxGeometry x="240" y="10" width="80" height="40" as="geometry"/>
                </mxCell>
                <mxCell id="SRjV_Cp3Ms5dzVHO0-1p-1" style="edgeStyle=none;shape=connector;rounded=1;orthogonalLoop=1;jettySize=auto;html=1;exitX=0.5;exitY=1;exitDx=0;exitDy=0;entryX=0.5;entryY=0;entryDx=0;entryDy=0;labelBackgroundColor=default;fontFamily=Helvetica;fontSize=11;fontColor=default;endArrow=classicThin;strokeColor=#990000;strokeWidth=2;elbow=vertical;endFill=1;startSize=3;endSize=3;" parent="MCLd99j0MumWY56yEGRH-1" source="GU_CEaot5JSk9fCdpZLy-2" target="SRjV_Cp3Ms5dzVHO0-1p-0" edge="1">
                    <mxGeometry relative="1" as="geometry"/>
                </mxCell>
                <mxCell id="GU_CEaot5JSk9fCdpZLy-2" value="SparTA propagator" style="whiteSpace=wrap;align=center;verticalAlign=middle;fontStyle=1;strokeWidth=2;fillColor=#E6FFCC;rounded=1;" parent="MCLd99j0MumWY56yEGRH-1" vertex="1">
                    <mxGeometry x="120" y="80" width="200" height="40" as="geometry"/>
                </mxCell>
                <mxCell id="SRjV_Cp3Ms5dzVHO0-1p-4" style="edgeStyle=none;shape=connector;rounded=1;orthogonalLoop=1;jettySize=auto;html=1;exitX=0.25;exitY=1;exitDx=0;exitDy=0;entryX=0.5;entryY=0;entryDx=0;entryDy=0;labelBackgroundColor=default;fontFamily=Helvetica;fontSize=11;fontColor=default;endArrow=classicThin;strokeColor=#990000;strokeWidth=2;elbow=vertical;endFill=1;startSize=3;endSize=3;" parent="MCLd99j0MumWY56yEGRH-1" source="R2pFooW_HJW6d1KJYY1h-0" target="SRjV_Cp3Ms5dzVHO0-1p-2" edge="1">
                    <mxGeometry relative="1" as="geometry"/>
                </mxCell>
                <mxCell id="R2pFooW_HJW6d1KJYY1h-0" value="Compiler Interface" style="whiteSpace=wrap;align=center;verticalAlign=middle;fontStyle=1;strokeWidth=2;fillColor=#E6FFCC;rounded=1;" parent="MCLd99j0MumWY56yEGRH-1" vertex="1">
                    <mxGeometry x="120" y="180" width="200" height="40" as="geometry"/>
                </mxCell>
                <mxCell id="SRjV_Cp3Ms5dzVHO0-1p-6" style="edgeStyle=none;shape=connector;rounded=1;orthogonalLoop=1;jettySize=auto;html=1;exitX=0.75;exitY=0;exitDx=0;exitDy=0;entryX=0.5;entryY=1;entryDx=0;entryDy=0;labelBackgroundColor=default;fontFamily=Helvetica;fontSize=11;fontColor=default;endArrow=classicThin;strokeColor=#990000;strokeWidth=2;elbow=vertical;endFill=1;startSize=3;endSize=3;" parent="MCLd99j0MumWY56yEGRH-1" source="R2pFooW_HJW6d1KJYY1h-1" target="SRjV_Cp3Ms5dzVHO0-1p-3" edge="1">
                    <mxGeometry relative="1" as="geometry"/>
                </mxCell>
                <mxCell id="MrKjGDOQHOzTDkyfcLY3-4" style="edgeStyle=none;shape=connector;rounded=1;orthogonalLoop=1;jettySize=auto;html=1;exitX=0.75;exitY=1;exitDx=0;exitDy=0;entryX=0.5;entryY=0;entryDx=0;entryDy=0;labelBackgroundColor=default;fontFamily=Helvetica;fontSize=11;fontColor=default;endArrow=classicThin;endFill=1;startSize=3;endSize=3;strokeColor=#990000;strokeWidth=2;elbow=vertical;" parent="MCLd99j0MumWY56yEGRH-1" source="R2pFooW_HJW6d1KJYY1h-1" target="mdzPaGVVpMRmBxDRZHBc-8" edge="1">
                    <mxGeometry relative="1" as="geometry"/>
                </mxCell>
                <mxCell id="R2pFooW_HJW6d1KJYY1h-1" value="SparTA specializer" style="whiteSpace=wrap;align=center;verticalAlign=middle;fontStyle=1;strokeWidth=2;fillColor=#E6FFCC;rounded=1;" parent="MCLd99j0MumWY56yEGRH-1" vertex="1">
                    <mxGeometry x="120" y="290" width="200" height="40" as="geometry"/>
                </mxCell>
                <mxCell id="R2pFooW_HJW6d1KJYY1h-3" value="Structured-Pruned Model" style="whiteSpace=wrap;align=center;verticalAlign=middle;fontStyle=1;strokeWidth=2;fillColor=#FFFFCC" parent="MCLd99j0MumWY56yEGRH-1" vertex="1">
                    <mxGeometry x="400" y="110" width="90" height="40" as="geometry"/>
                </mxCell>
                <mxCell id="R2pFooW_HJW6d1KJYY1h-4" value="Sparse Model&#10;(C++)" style="whiteSpace=wrap;align=center;verticalAlign=middle;fontStyle=1;strokeWidth=2;fillColor=#FFFFCC" parent="MCLd99j0MumWY56yEGRH-1" vertex="1">
                    <mxGeometry x="395" y="340" width="90" height="40" as="geometry"/>
                </mxCell>
                <mxCell id="mdzPaGVVpMRmBxDRZHBc-5" value="Sparse Model&#10;(PyTorch)" style="whiteSpace=wrap;align=center;verticalAlign=middle;fontStyle=1;strokeWidth=2;fillColor=#FFFFCC" parent="MCLd99j0MumWY56yEGRH-1" vertex="1">
                    <mxGeometry x="395" y="230" width="90" height="40" as="geometry"/>
                </mxCell>
                <mxCell id="mdzPaGVVpMRmBxDRZHBc-10" style="edgeStyle=elbowEdgeStyle;shape=connector;rounded=1;orthogonalLoop=1;jettySize=auto;elbow=vertical;html=1;exitX=0.5;exitY=0;exitDx=0;exitDy=0;entryX=0.25;entryY=1;entryDx=0;entryDy=0;labelBackgroundColor=default;fontFamily=Helvetica;fontSize=11;fontColor=default;endArrow=classicThin;strokeColor=#990000;strokeWidth=2;endFill=1;startSize=3;endSize=3;" parent="MCLd99j0MumWY56yEGRH-1" source="mdzPaGVVpMRmBxDRZHBc-7" target="R2pFooW_HJW6d1KJYY1h-1" edge="1">
                    <mxGeometry relative="1" as="geometry"/>
                </mxCell>
                <mxCell id="mdzPaGVVpMRmBxDRZHBc-7" value="templates &amp; sparse lib." style="whiteSpace=wrap;align=center;verticalAlign=middle;fontStyle=1;strokeWidth=2;fillColor=#E6FFCC;rounded=1;" parent="MCLd99j0MumWY56yEGRH-1" vertex="1">
                    <mxGeometry x="120" y="351" width="100" height="40" as="geometry"/>
                </mxCell>
                <mxCell id="MrKjGDOQHOzTDkyfcLY3-3" style="edgeStyle=none;shape=connector;rounded=1;orthogonalLoop=1;jettySize=auto;html=1;exitX=0;exitY=0.5;exitDx=0;exitDy=0;entryX=1;entryY=0.5;entryDx=0;entryDy=0;labelBackgroundColor=default;fontFamily=Helvetica;fontSize=11;fontColor=default;endArrow=classicThin;endFill=1;startSize=3;endSize=3;strokeColor=#990000;strokeWidth=2;elbow=vertical;" parent="MCLd99j0MumWY56yEGRH-1" source="mdzPaGVVpMRmBxDRZHBc-8" target="mdzPaGVVpMRmBxDRZHBc-7" edge="1">
                    <mxGeometry relative="1" as="geometry"/>
                </mxCell>
                <mxCell id="mdzPaGVVpMRmBxDRZHBc-8" value="TVM" style="whiteSpace=wrap;align=center;verticalAlign=middle;fontStyle=1;strokeWidth=2;fillColor=#E6FFCC;rounded=1;" parent="MCLd99j0MumWY56yEGRH-1" vertex="1">
                    <mxGeometry x="240" y="351" width="60" height="40" as="geometry"/>
                </mxCell>
                <mxCell id="mdzPaGVVpMRmBxDRZHBc-16" value="NNI-IR" style="whiteSpace=wrap;align=center;verticalAlign=middle;fontStyle=1;strokeWidth=2;fillColor=#E6FFCC;rounded=1;" parent="MCLd99j0MumWY56yEGRH-1" vertex="1">
                    <mxGeometry x="280" y="100" width="40" height="20" as="geometry"/>
                </mxCell>
                <mxCell id="SRjV_Cp3Ms5dzVHO0-1p-8" style="edgeStyle=none;shape=connector;rounded=1;orthogonalLoop=1;jettySize=auto;html=1;exitX=0.5;exitY=1;exitDx=0;exitDy=0;entryX=0.5;entryY=0;entryDx=0;entryDy=0;labelBackgroundColor=default;fontFamily=Helvetica;fontSize=11;fontColor=default;endArrow=classicThin;strokeColor=#990000;strokeWidth=2;elbow=vertical;endFill=1;startSize=3;endSize=3;" parent="MCLd99j0MumWY56yEGRH-1" source="SRjV_Cp3Ms5dzVHO0-1p-0" target="R2pFooW_HJW6d1KJYY1h-0" edge="1">
                    <mxGeometry relative="1" as="geometry"/>
                </mxCell>
                <mxCell id="Uf6eUAfgcNMtJNlgmRUA-2" style="edgeStyle=elbowEdgeStyle;shape=connector;rounded=1;orthogonalLoop=1;jettySize=auto;html=1;exitX=1;exitY=0.5;exitDx=0;exitDy=0;entryX=0;entryY=0.5;entryDx=0;entryDy=0;labelBackgroundColor=default;fontFamily=Helvetica;fontSize=11;fontColor=default;startArrow=none;startFill=0;endArrow=classicThin;endFill=1;startSize=3;endSize=3;strokeColor=#990000;strokeWidth=2;" parent="MCLd99j0MumWY56yEGRH-1" source="SRjV_Cp3Ms5dzVHO0-1p-0" target="R2pFooW_HJW6d1KJYY1h-3" edge="1">
                    <mxGeometry relative="1" as="geometry"/>
                </mxCell>
                <mxCell id="SRjV_Cp3Ms5dzVHO0-1p-0" value="Propagated TeSA Spec" style="whiteSpace=wrap;align=center;verticalAlign=middle;fontStyle=1;strokeWidth=2;fillColor=#f8cecc;rounded=0;strokeColor=none;" parent="MCLd99j0MumWY56yEGRH-1" vertex="1">
                    <mxGeometry x="140" y="140" width="160" height="20" as="geometry"/>
                </mxCell>
                <mxCell id="SRjV_Cp3Ms5dzVHO0-1p-5" style="edgeStyle=none;shape=connector;rounded=1;orthogonalLoop=1;jettySize=auto;html=1;exitX=0.5;exitY=1;exitDx=0;exitDy=0;entryX=0.25;entryY=0;entryDx=0;entryDy=0;labelBackgroundColor=default;fontFamily=Helvetica;fontSize=11;fontColor=default;endArrow=classicThin;strokeColor=#990000;strokeWidth=2;elbow=vertical;endFill=1;startSize=3;endSize=3;" parent="MCLd99j0MumWY56yEGRH-1" source="SRjV_Cp3Ms5dzVHO0-1p-2" target="R2pFooW_HJW6d1KJYY1h-1" edge="1">
                    <mxGeometry relative="1" as="geometry"/>
                </mxCell>
                <mxCell id="SRjV_Cp3Ms5dzVHO0-1p-2" value="TeSA spec&#10;for kernels" style="whiteSpace=wrap;align=center;verticalAlign=middle;fontStyle=1;strokeWidth=2;fillColor=#f8cecc;rounded=0;strokeColor=none;" parent="MCLd99j0MumWY56yEGRH-1" vertex="1">
                    <mxGeometry x="130" y="240" width="80" height="30" as="geometry"/>
                </mxCell>
                <mxCell id="SRjV_Cp3Ms5dzVHO0-1p-7" style="edgeStyle=none;shape=connector;rounded=1;orthogonalLoop=1;jettySize=auto;html=1;exitX=0.5;exitY=0;exitDx=0;exitDy=0;entryX=0.75;entryY=1;entryDx=0;entryDy=0;labelBackgroundColor=default;fontFamily=Helvetica;fontSize=11;fontColor=default;endArrow=classicThin;strokeColor=#990000;strokeWidth=2;elbow=vertical;endFill=1;startSize=3;endSize=3;" parent="MCLd99j0MumWY56yEGRH-1" source="SRjV_Cp3Ms5dzVHO0-1p-3" target="R2pFooW_HJW6d1KJYY1h-0" edge="1">
                    <mxGeometry relative="1" as="geometry"/>
                </mxCell>
                <mxCell id="SRjV_Cp3Ms5dzVHO0-1p-3" value="specialized kernels" style="whiteSpace=wrap;align=center;verticalAlign=middle;fontStyle=1;strokeWidth=2;fillColor=#f8cecc;rounded=0;strokeColor=none;" parent="MCLd99j0MumWY56yEGRH-1" vertex="1">
                    <mxGeometry x="230" y="240" width="80" height="30" as="geometry"/>
                </mxCell>
                <mxCell id="SRjV_Cp3Ms5dzVHO0-1p-10" style="edgeStyle=elbowEdgeStyle;shape=connector;rounded=1;orthogonalLoop=1;jettySize=auto;html=1;exitX=0;exitY=0.5;exitDx=0;exitDy=0;entryX=1;entryY=0.25;entryDx=0;entryDy=0;labelBackgroundColor=default;fontFamily=Helvetica;fontSize=11;fontColor=default;endArrow=classicThin;strokeColor=#990000;strokeWidth=2;startArrow=classicThin;startFill=1;endFill=1;startSize=3;endSize=3;" parent="MCLd99j0MumWY56yEGRH-1" source="SRjV_Cp3Ms5dzVHO0-1p-9" target="R2pFooW_HJW6d1KJYY1h-0" edge="1">
                    <mxGeometry relative="1" as="geometry"/>
                </mxCell>
                <mxCell id="Uf6eUAfgcNMtJNlgmRUA-0" style="edgeStyle=elbowEdgeStyle;shape=connector;rounded=1;orthogonalLoop=1;jettySize=auto;html=1;exitX=0.5;exitY=1;exitDx=0;exitDy=0;entryX=0.5;entryY=0;entryDx=0;entryDy=0;labelBackgroundColor=default;fontFamily=Helvetica;fontSize=11;fontColor=default;startArrow=none;startFill=0;endArrow=classicThin;endFill=1;startSize=3;endSize=3;strokeColor=#990000;strokeWidth=2;" parent="MCLd99j0MumWY56yEGRH-1" source="SRjV_Cp3Ms5dzVHO0-1p-9" target="mdzPaGVVpMRmBxDRZHBc-5" edge="1">
                    <mxGeometry relative="1" as="geometry"/>
                </mxCell>
                <mxCell id="SRjV_Cp3Ms5dzVHO0-1p-9" value="PyTorch as parser" style="whiteSpace=wrap;align=center;verticalAlign=middle;fontStyle=1;strokeWidth=2;fillColor=#e1d5e7;rounded=1;strokeColor=#000000;" parent="MCLd99j0MumWY56yEGRH-1" vertex="1">
                    <mxGeometry x="360" y="175" width="160" height="30" as="geometry"/>
                </mxCell>
                <mxCell id="SRjV_Cp3Ms5dzVHO0-1p-13" style="edgeStyle=elbowEdgeStyle;shape=connector;rounded=1;orthogonalLoop=1;jettySize=auto;html=1;exitX=0;exitY=0.5;exitDx=0;exitDy=0;entryX=1;entryY=0.75;entryDx=0;entryDy=0;labelBackgroundColor=default;fontFamily=Helvetica;fontSize=11;fontColor=default;endArrow=classicThin;endFill=1;startSize=3;endSize=3;strokeColor=#990000;strokeWidth=2;startArrow=classicThin;startFill=1;" parent="MCLd99j0MumWY56yEGRH-1" source="SRjV_Cp3Ms5dzVHO0-1p-11" target="R2pFooW_HJW6d1KJYY1h-0" edge="1">
                    <mxGeometry relative="1" as="geometry"/>
                </mxCell>
                <mxCell id="Uf6eUAfgcNMtJNlgmRUA-1" style="edgeStyle=elbowEdgeStyle;shape=connector;rounded=1;orthogonalLoop=1;jettySize=auto;html=1;exitX=0.5;exitY=1;exitDx=0;exitDy=0;entryX=0.5;entryY=0;entryDx=0;entryDy=0;labelBackgroundColor=default;fontFamily=Helvetica;fontSize=11;fontColor=default;startArrow=none;startFill=0;endArrow=classicThin;endFill=1;startSize=3;endSize=3;strokeColor=#990000;strokeWidth=2;" parent="MCLd99j0MumWY56yEGRH-1" source="SRjV_Cp3Ms5dzVHO0-1p-11" target="R2pFooW_HJW6d1KJYY1h-4" edge="1">
                    <mxGeometry relative="1" as="geometry"/>
                </mxCell>
                <mxCell id="SRjV_Cp3Ms5dzVHO0-1p-11" value="Rammer" style="whiteSpace=wrap;align=center;verticalAlign=middle;fontStyle=1;strokeWidth=2;fillColor=#E1D5E7;rounded=1;" parent="MCLd99j0MumWY56yEGRH-1" vertex="1">
                    <mxGeometry x="360" y="290" width="160" height="30" as="geometry"/>
                </mxCell>
            </root>
        </mxGraphModel>
    </diagram>
    <diagram id="Y6V1GMFMeYThgU0ouxBd" name="Specializer">
        <mxGraphModel dx="471" dy="527" grid="1" gridSize="10" guides="1" tooltips="1" connect="1" arrows="1" fold="1" page="1" pageScale="1" pageWidth="850" pageHeight="1100" math="0" shadow="0">
            <root>
                <mxCell id="A0bJMXwy242Eo-q5qYKx-0"/>
                <mxCell id="A0bJMXwy242Eo-q5qYKx-1" parent="A0bJMXwy242Eo-q5qYKx-0"/>
                <mxCell id="0bd3KqV8A4ukIlesQF7P-0" value="SparseOpeIntf" style="whiteSpace=wrap;align=center;verticalAlign=middle;fontStyle=1;strokeWidth=2;fillColor=#E6FFCC;rounded=1;" parent="A0bJMXwy242Eo-q5qYKx-1" vertex="1">
                    <mxGeometry x="60" y="80" width="120" height="40" as="geometry"/>
                </mxCell>
                <mxCell id="0bd3KqV8A4ukIlesQF7P-4" style="edgeStyle=none;html=1;exitX=0.5;exitY=0;exitDx=0;exitDy=0;entryX=0.25;entryY=1;entryDx=0;entryDy=0;fillColor=#f8cecc;strokeColor=#b85450;strokeWidth=2;" parent="A0bJMXwy242Eo-q5qYKx-1" source="0bd3KqV8A4ukIlesQF7P-2" target="0bd3KqV8A4ukIlesQF7P-0" edge="1">
                    <mxGeometry relative="1" as="geometry"/>
                </mxCell>
                <mxCell id="0bd3KqV8A4ukIlesQF7P-2" value="Implement-A" style="whiteSpace=wrap;align=center;verticalAlign=middle;fontStyle=1;strokeWidth=2;fillColor=#E6FFCC;rounded=1;" parent="A0bJMXwy242Eo-q5qYKx-1" vertex="1">
                    <mxGeometry x="40" y="160" width="120" height="40" as="geometry"/>
                </mxCell>
                <mxCell id="0bd3KqV8A4ukIlesQF7P-5" style="edgeStyle=none;html=1;exitX=0.25;exitY=0;exitDx=0;exitDy=0;entryX=0.75;entryY=1;entryDx=0;entryDy=0;fillColor=#f8cecc;strokeColor=#b85450;strokeWidth=2;" parent="A0bJMXwy242Eo-q5qYKx-1" source="0bd3KqV8A4ukIlesQF7P-3" target="0bd3KqV8A4ukIlesQF7P-0" edge="1">
                    <mxGeometry relative="1" as="geometry"/>
                </mxCell>
                <mxCell id="0bd3KqV8A4ukIlesQF7P-3" value="Implement-B" style="whiteSpace=wrap;align=center;verticalAlign=middle;fontStyle=1;strokeWidth=2;fillColor=#E6FFCC;rounded=1;" parent="A0bJMXwy242Eo-q5qYKx-1" vertex="1">
                    <mxGeometry x="200" y="160" width="120" height="40" as="geometry"/>
                </mxCell>
                <mxCell id="KGKOwCai03pLptmggmYy-2" value="" style="endArrow=classic;html=1;entryX=0.25;entryY=0;entryDx=0;entryDy=0;strokeWidth=3;exitX=0;exitY=1;exitDx=0;exitDy=0;" parent="A0bJMXwy242Eo-q5qYKx-1" source="KGKOwCai03pLptmggmYy-4" target="0bd3KqV8A4ukIlesQF7P-0" edge="1">
                    <mxGeometry width="50" height="50" relative="1" as="geometry">
                        <mxPoint x="120" y="40" as="sourcePoint"/>
                        <mxPoint x="140" y="20" as="targetPoint"/>
                    </mxGeometry>
                </mxCell>
                <mxCell id="KGKOwCai03pLptmggmYy-3" value="DenseOp" style="text;html=1;strokeColor=none;fillColor=none;align=center;verticalAlign=middle;whiteSpace=wrap;rounded=0;" parent="A0bJMXwy242Eo-q5qYKx-1" vertex="1">
                    <mxGeometry x="40" y="20" width="60" height="30" as="geometry"/>
                </mxCell>
                <mxCell id="KGKOwCai03pLptmggmYy-4" value="TeSA" style="text;html=1;strokeColor=none;fillColor=none;align=center;verticalAlign=middle;whiteSpace=wrap;rounded=0;" parent="A0bJMXwy242Eo-q5qYKx-1" vertex="1">
                    <mxGeometry x="90" y="20" width="60" height="30" as="geometry"/>
                </mxCell>
                <mxCell id="KGKOwCai03pLptmggmYy-5" value="DummyInput" style="text;html=1;strokeColor=none;fillColor=none;align=center;verticalAlign=middle;whiteSpace=wrap;rounded=0;" parent="A0bJMXwy242Eo-q5qYKx-1" vertex="1">
                    <mxGeometry x="150" y="20" width="60" height="30" as="geometry"/>
                </mxCell>
                <mxCell id="KGKOwCai03pLptmggmYy-8" value="" style="endArrow=classic;html=1;entryX=0.5;entryY=0;entryDx=0;entryDy=0;strokeWidth=3;" parent="A0bJMXwy242Eo-q5qYKx-1" target="0bd3KqV8A4ukIlesQF7P-0" edge="1">
                    <mxGeometry width="50" height="50" relative="1" as="geometry">
                        <mxPoint x="120" y="50" as="sourcePoint"/>
                        <mxPoint x="130" y="80" as="targetPoint"/>
                    </mxGeometry>
                </mxCell>
                <mxCell id="KGKOwCai03pLptmggmYy-9" value="" style="endArrow=classic;html=1;entryX=0.75;entryY=0;entryDx=0;entryDy=0;strokeWidth=3;exitX=1;exitY=1;exitDx=0;exitDy=0;" parent="A0bJMXwy242Eo-q5qYKx-1" source="KGKOwCai03pLptmggmYy-4" target="0bd3KqV8A4ukIlesQF7P-0" edge="1">
                    <mxGeometry width="50" height="50" relative="1" as="geometry">
                        <mxPoint x="180" y="40" as="sourcePoint"/>
                        <mxPoint x="180" y="80" as="targetPoint"/>
                    </mxGeometry>
                </mxCell>
                <mxCell id="KGKOwCai03pLptmggmYy-11" value="Parameters:&lt;br style=&quot;font-size: 11px;&quot;&gt;A1 in [a1,a2,a3]&lt;br style=&quot;font-size: 11px;&quot;&gt;A2 in [a4,a5,a6]" style="text;html=1;strokeColor=none;fillColor=none;align=left;verticalAlign=middle;whiteSpace=wrap;rounded=0;fontSize=11;" parent="A0bJMXwy242Eo-q5qYKx-1" vertex="1">
                    <mxGeometry x="40" y="210" width="100" height="40" as="geometry"/>
                </mxCell>
                <mxCell id="KGKOwCai03pLptmggmYy-12" value="Parameters:&lt;br style=&quot;font-size: 11px&quot;&gt;B1 in [b1,b2,b3]&lt;br style=&quot;font-size: 11px&quot;&gt;B2 in [b4,b5,b6]" style="text;html=1;strokeColor=none;fillColor=none;align=left;verticalAlign=middle;whiteSpace=wrap;rounded=0;fontSize=11;" parent="A0bJMXwy242Eo-q5qYKx-1" vertex="1">
                    <mxGeometry x="200" y="210" width="100" height="40" as="geometry"/>
                </mxCell>
                <mxCell id="KGKOwCai03pLptmggmYy-13" value="tuner" style="whiteSpace=wrap;align=center;verticalAlign=middle;fontStyle=1;strokeWidth=2;fillColor=#b0e3e6;rounded=1;strokeColor=#0e8088;" parent="A0bJMXwy242Eo-q5qYKx-1" vertex="1">
                    <mxGeometry x="220" y="80" width="70" height="40" as="geometry"/>
                </mxCell>
                <mxCell id="KGKOwCai03pLptmggmYy-14" value="" style="endArrow=classic;html=1;fontSize=11;strokeWidth=2;exitX=0.75;exitY=0;exitDx=0;exitDy=0;entryX=0.75;entryY=1;entryDx=0;entryDy=0;fillColor=#0050ef;strokeColor=#001DBC;" parent="A0bJMXwy242Eo-q5qYKx-1" source="0bd3KqV8A4ukIlesQF7P-3" target="KGKOwCai03pLptmggmYy-13" edge="1">
                    <mxGeometry width="50" height="50" relative="1" as="geometry">
                        <mxPoint x="330" y="180" as="sourcePoint"/>
                        <mxPoint x="380" y="130" as="targetPoint"/>
                    </mxGeometry>
                </mxCell>
                <mxCell id="KGKOwCai03pLptmggmYy-16" value="" style="endArrow=classic;html=1;fontSize=11;strokeWidth=2;exitX=1;exitY=0;exitDx=0;exitDy=0;entryX=0.25;entryY=1;entryDx=0;entryDy=0;fillColor=#0050ef;strokeColor=#001DBC;" parent="A0bJMXwy242Eo-q5qYKx-1" source="0bd3KqV8A4ukIlesQF7P-2" target="KGKOwCai03pLptmggmYy-13" edge="1">
                    <mxGeometry width="50" height="50" relative="1" as="geometry">
                        <mxPoint x="300" y="170" as="sourcePoint"/>
                        <mxPoint x="342.5" y="130" as="targetPoint"/>
                    </mxGeometry>
                </mxCell>
                <mxCell id="KGKOwCai03pLptmggmYy-17" value="" style="endArrow=classic;html=1;fontSize=11;strokeWidth=2;entryX=1;entryY=0.5;entryDx=0;entryDy=0;fillColor=#0050ef;strokeColor=#001DBC;exitX=0;exitY=0.5;exitDx=0;exitDy=0;" parent="A0bJMXwy242Eo-q5qYKx-1" source="KGKOwCai03pLptmggmYy-13" target="0bd3KqV8A4ukIlesQF7P-0" edge="1">
                    <mxGeometry width="50" height="50" relative="1" as="geometry">
                        <mxPoint x="210" y="100" as="sourcePoint"/>
                        <mxPoint x="272.5" y="130" as="targetPoint"/>
                    </mxGeometry>
                </mxCell>
            </root>
        </mxGraphModel>
    </diagram>
</mxfile>